<?xml version="1.0" standalone="no"?>
<!DOCTYPE svg PUBLIC "-//W3C//DTD SVG 20010904//EN"
 "http://www.w3.org/TR/2001/REC-SVG-20010904/DTD/svg10.dtd">
<svg version="1.0" xmlns="http://www.w3.org/2000/svg"
 width="1109.000000pt" height="1109.000000pt" viewBox="0 0 1109.000000 1109.000000"
 preserveAspectRatio="xMidYMid meet">
<metadata>
Created by potrace 1.14, written by Peter Selinger 2001-2017
</metadata>
<g transform="translate(0.000000,1109.000000) scale(0.100000,-0.100000)"
fill="#000000" stroke="none">
<path d="M3070 10677 c-3 -3 -43 -7 -90 -11 -47 -3 -96 -8 -110 -10 -14 -2
-47 -8 -75 -12 -27 -4 -57 -8 -65 -9 -8 -1 -26 -5 -40 -8 -14 -3 -43 -8 -65
-12 -22 -4 -67 -14 -100 -22 -33 -8 -67 -16 -75 -18 -8 -2 -42 -11 -75 -21
-33 -10 -64 -19 -70 -20 -76 -17 -386 -145 -532 -221 -147 -76 -433 -256 -463
-292 -3 -3 -34 -28 -70 -56 -90 -68 -115 -91 -276 -250 -321 -318 -559 -678
-727 -1100 -50 -125 -129 -369 -141 -435 -2 -14 -10 -47 -16 -75 -15 -65 -29
-139 -35 -185 -2 -15 -14 -96 -20 -138 -33 -211 -22 -684 20 -903 3 -13 7 -41
11 -64 3 -22 10 -60 16 -85 5 -25 11 -52 13 -60 96 -446 316 -906 621 -1300
121 -155 429 -465 537 -539 12 -8 24 -18 27 -22 8 -10 177 -130 245 -174 150
-96 349 -200 515 -268 41 -17 78 -33 83 -37 9 -7 15 -34 23 -104 3 -28 10 -70
15 -95 5 -25 12 -62 15 -81 12 -81 97 -405 139 -534 107 -325 246 -629 417
-915 49 -83 206 -321 218 -331 3 -3 32 -41 65 -85 170 -228 411 -483 655 -692
504 -432 1106 -752 1738 -922 145 -40 399 -94 497 -107 28 -3 58 -8 67 -9 9
-2 48 -7 85 -10 37 -4 75 -9 83 -10 99 -18 575 -26 770 -12 160 12 278 25 380
43 14 2 48 7 75 10 28 4 53 8 56 10 4 2 24 6 45 10 97 14 380 89 541 142 391
130 725 291 1073 520 63 42 120 80 125 84 6 4 53 40 105 79 218 164 462 387
633 580 27 30 59 65 71 79 41 46 180 224 244 312 85 118 271 413 261 413 -2 0
6 14 18 30 47 67 191 374 266 570 69 179 140 405 162 515 2 8 8 35 15 60 7 25
14 56 16 70 2 14 9 45 14 70 11 50 18 88 25 140 3 19 8 46 11 60 3 13 7 40 10
60 2 19 8 69 14 110 31 238 34 852 6 995 -2 11 -7 49 -11 85 -3 36 -8 76 -10
90 -7 47 -35 205 -40 230 -3 14 -10 45 -15 70 -9 50 -13 66 -28 125 -6 22 -13
51 -16 65 -3 14 -16 63 -31 110 -14 47 -27 92 -29 100 -12 49 -91 266 -141
384 -501 1203 -1497 2129 -2733 2543 -73 24 -141 46 -150 48 -9 3 -60 16 -112
31 -140 38 -262 64 -470 98 -212 36 -416 50 -700 50 -255 -1 -390 -8 -540 -29
-128 -18 -125 -19 -156 21 -16 20 -33 42 -39 48 -5 6 -42 49 -82 96 -127 151
-348 357 -523 486 -310 229 -656 403 -1020 511 -96 28 -312 78 -380 88 -25 3
-52 8 -60 10 -8 2 -44 7 -80 10 -36 4 -74 9 -85 12 -26 6 -539 16 -545 10z"/>
</g>
</svg>
